<?xml version="1.0" encoding="utf-8"?>
<!-- Generator: Adobe Illustrator 18.0.0, SVG Export Plug-In . SVG Version: 6.00 Build 0)  -->
<!DOCTYPE svg PUBLIC "-//W3C//DTD SVG 1.1//EN" "http://www.w3.org/Graphics/SVG/1.1/DTD/svg11.dtd">
<svg version="1.1" id="Facebook" xmlns="http://www.w3.org/2000/svg" xmlns:xlink="http://www.w3.org/1999/xlink" x="0px" y="0px"
	 viewBox="0 0 540 360" enable-background="new 0 0 540 360" xml:space="preserve">
<path d="M366.2,179c0,54.8-44.4,99.2-99.2,99.2c-54.8,0-99.2-44.4-99.2-99.2c0-6.5,0.6-12.9,1.8-19.1H103v131.8
	c0,28.3,22.9,51.2,51.2,51.2h225.5c28.3,0,51.2-22.9,51.2-51.2V159.9h-66.7C365.5,166.1,366.2,172.5,366.2,179z M379.8,15H154.2
	C125.9,15,103,38,103,66.3v55.5h83c18-25.4,47.5-42,81-42c33.4,0,63,16.6,81,42h83V66.3C431,38,408,15,379.8,15z M404.8,78.3
	c0,5-4.1,9.2-9.1,9.2h-27.5c-5,0-9.2-4.1-9.2-9.2V50.9c0-5,4.1-9.2,9.2-9.2h27.5c5,0,9.1,4.1,9.1,9.2V78.3z M328,179
	c0-33.7-27.3-61-61-61c-33.7,0-61,27.3-61,61s27.3,61,61,61C300.7,240,328,212.7,328,179z"/>
</svg>
