<?xml version="1.0" encoding="utf-8"?>
<!-- Generator: Adobe Illustrator 18.0.0, SVG Export Plug-In . SVG Version: 6.00 Build 0)  -->
<!DOCTYPE svg PUBLIC "-//W3C//DTD SVG 1.1//EN" "http://www.w3.org/Graphics/SVG/1.1/DTD/svg11.dtd">
<svg version="1.1" id="Instagram" xmlns="http://www.w3.org/2000/svg" xmlns:xlink="http://www.w3.org/1999/xlink" x="0px" y="0px"
	 viewBox="0 0 540 360" enable-background="new 0 0 540 360" xml:space="preserve">
<path fill="#FFFFFF" d="M396,18H144c-19.8,0-36,16.2-36,36v252c0,19.8,16.2,36,36,36h252c19.8,0,36-16.2,36-36V54
	C432,34.2,415.8,18,396,18z M269.7,279.4c55.1,0,99.7-44.7,99.7-99.7c0-6.1-0.8-12-1.9-17.7H396v129.9c0,6.9-5.6,12.4-12.5,12.4
	H156.5c-6.9,0-12.5-5.5-12.5-12.4V162h27.9c-1.1,5.8-1.9,11.6-1.9,17.7C170,234.8,214.7,279.4,269.7,279.4z M207.4,179.7
	c0-34.4,27.9-62.3,62.3-62.3c34.4,0,62.3,27.9,62.3,62.3S304.1,242,269.7,242C235.3,242,207.4,214.1,207.4,179.7z M383.5,108h-29.1
	c-6.9,0-12.5-5.6-12.5-12.5V66.4c0-6.9,5.6-12.4,12.4-12.4h29.1c6.9,0,12.5,5.6,12.5,12.4v29.1C396,102.4,390.4,108,383.5,108z"/>
</svg>
