<?xml version="1.0" encoding="utf-8"?>
<!-- Generator: Adobe Illustrator 18.0.0, SVG Export Plug-In . SVG Version: 6.00 Build 0)  -->
<!DOCTYPE svg PUBLIC "-//W3C//DTD SVG 1.1//EN" "http://www.w3.org/Graphics/SVG/1.1/DTD/svg11.dtd">
<svg version="1.1" xmlns="http://www.w3.org/2000/svg" xmlns:xlink="http://www.w3.org/1999/xlink" x="0px" y="0px"
	 viewBox="0 0 30 30" enable-background="new 0 0 30 30" xml:space="preserve">
<g id="Background_xA0_Image_1_">
</g>
<g id="Row_1_1_">
	<g>
		<path d="M20.7,19c0.2,0.2,0.6,0.3,1.1,0.3c0.8,0,1.4-0.2,1.9-0.7s0.9-1.1,1.2-1.8c0.3-0.7,0.4-1.5,0.5-2.4c0.1-0.9,0-1.8-0.1-2.6
			c-0.4-2.4-1.5-4.2-3.2-5.5c-1.7-1.3-3.9-1.9-6.5-1.9c-2,0-3.8,0.4-5.3,1C8.8,6.1,7.7,7,6.8,8.2C5.9,9.4,5.3,10.7,5,12.3
			c-0.3,1.5-0.3,3.1,0,4.8c0.3,1.5,0.7,2.8,1.4,3.9s1.4,1.9,2.3,2.6c0.9,0.7,1.9,1.2,3,1.5c1.1,0.3,2.2,0.5,3.4,0.5
			c1.1,0,2.1-0.1,3-0.2c0.9-0.1,1.7-0.4,2.4-0.6c0.3,0.5,0.5,0.9,0.8,1.4c0.3,0.5,0.5,1,0.7,1.5c-0.3,0.2-0.8,0.4-1.3,0.5
			s-1,0.3-1.6,0.4c-0.6,0.1-1.2,0.2-1.9,0.2c-0.7,0.1-1.3,0.1-2,0.1c-1.6,0-3.2-0.2-4.7-0.7c-1.5-0.5-2.9-1.2-4.2-2.1
			c-1.3-1-2.3-2.1-3.2-3.6s-1.5-3.2-1.8-5.1c-0.3-1.9-0.3-3.7,0-5.6s1.1-3.6,2.2-5.2c1.1-1.5,2.7-2.8,4.7-3.8c2-1,4.5-1.5,7.4-1.5
			c1.6,0,3.1,0.2,4.6,0.6c1.5,0.4,2.8,1.1,4,2s2.2,2,3.1,3.3s1.4,2.9,1.8,4.7c0.2,1.3,0.2,2.6,0,3.8c-0.2,1.3-0.6,2.4-1.2,3.4
			s-1.4,1.8-2.4,2.4c-1,0.6-2.1,1-3.5,1c-1.5,0-2.8-0.4-3.7-1.2c-0.6,0.3-1.2,0.6-1.8,0.8c-0.6,0.2-1.5,0.4-2.5,0.4
			c-0.7,0-1.3-0.1-1.9-0.3c-0.6-0.2-1.2-0.5-1.7-0.9c-0.5-0.4-1-1-1.3-1.6c-0.4-0.6-0.6-1.4-0.8-2.3c-0.3-1.4-0.2-2.7,0-3.9
			c0.3-1.2,0.7-2.2,1.4-3.1c0.7-0.9,1.5-1.5,2.5-2c1-0.5,2.1-0.7,3.3-0.7c0.9,0,1.9,0.1,2.8,0.2s1.8,0.4,2.7,0.6L20.7,19z
			 M16.9,11.1c-0.2-0.1-0.5-0.1-0.7-0.1c-0.2,0-0.4,0-0.6,0c-0.7,0-1.3,0.2-1.8,0.5c-0.5,0.3-0.9,0.7-1.1,1.2
			c-0.3,0.5-0.5,1.1-0.5,1.8c-0.1,0.7-0.1,1.4,0.1,2.1c0.2,0.9,0.5,1.6,1,2c0.5,0.4,1.1,0.6,1.7,0.6c0.4,0,0.8,0,1.1-0.1
			c0.3-0.1,0.6-0.1,0.9-0.3L16.9,11.1z"/>
	</g>
</g>
</svg>
